<?xml version="1.0" encoding="UTF-8" standalone="no"?>
<!-- Created with Inkscape (http://www.inkscape.org/) -->

<svg
   xmlns:svg="http://www.w3.org/2000/svg"
   xmlns="http://www.w3.org/2000/svg"
   xmlns:xlink="http://www.w3.org/1999/xlink"
   version="1.0"
   width="48"
   height="48"
   id="svg11300"
   style="display:inline;enable-background:new">
  <defs
     id="defs3">
    <filter
       x="-0.090667"
       y="-0.31875"
       width="1.1813"
       height="1.6375"
       color-interpolation-filters="sRGB"
       id="filter5766-5">
      <feGaussianBlur
         id="feGaussianBlur5768-2"
         stdDeviation="0.79295562" />
    </filter>
    <linearGradient
       id="linearGradient3881-64">
      <stop
         id="stop3883-9"
         style="stop-color:#babdb6;stop-opacity:1"
         offset="0" />
      <stop
         id="stop3895-0"
         style="stop-color:#eeeeec;stop-opacity:1"
         offset="0.13349" />
      <stop
         id="stop3891-3"
         style="stop-color:#babdb6;stop-opacity:1"
         offset="0.53103" />
      <stop
         id="stop3893-5"
         style="stop-color:#ffffff;stop-opacity:1"
         offset="0.78739" />
      <stop
         id="stop3885-9"
         style="stop-color:#9c988a;stop-opacity:1"
         offset="1" />
    </linearGradient>
    <linearGradient
       id="linearGradient3869-4">
      <stop
         id="stop3871-79"
         style="stop-color:#555753;stop-opacity:1"
         offset="0" />
      <stop
         id="stop3873-74"
         style="stop-color:#babdb6;stop-opacity:1"
         offset="1" />
    </linearGradient>
    <linearGradient
       id="linearGradient5379-95">
      <stop
         id="stop5381-9"
         style="stop-color:#ffffff;stop-opacity:1"
         offset="0" />
      <stop
         id="stop5383-0"
         style="stop-color:#ffffff;stop-opacity:0"
         offset="1" />
    </linearGradient>
    <linearGradient
       id="linearGradient5772-1">
      <stop
         id="stop5774-8"
         style="stop-color:#e2b369;stop-opacity:1"
         offset="0" />
      <stop
         id="stop5776-7"
         style="stop-color:#c79b55;stop-opacity:1"
         offset="1" />
    </linearGradient>
    <linearGradient
       id="linearGradient5788-6">
      <stop
         id="stop5790-5"
         style="stop-color:#ffffff;stop-opacity:1"
         offset="0" />
      <stop
         id="stop5792-4"
         style="stop-color:#ffffff;stop-opacity:0"
         offset="1" />
    </linearGradient>
    <filter
       x="-0.083651"
       y="-0.45204"
       width="1.1673"
       height="1.9041"
       color-interpolation-filters="sRGB"
       id="filter5830-5">
      <feGaussianBlur
         id="feGaussianBlur5832-8"
         stdDeviation="1.4691176" />
    </filter>
    <linearGradient
       id="linearGradient3968-1">
      <stop
         id="stop3970-9"
         style="stop-color:#8f5902;stop-opacity:1"
         offset="0" />
      <stop
         id="stop3972-0"
         style="stop-color:#e9b96e;stop-opacity:1"
         offset="1" />
    </linearGradient>
    <filter
       color-interpolation-filters="sRGB"
       id="filter4507-1-0">
      <feGaussianBlur
         stdDeviation="0.63749164"
         id="feGaussianBlur4509-4-9" />
    </filter>
    <linearGradient
       id="linearGradient3-paper-sheet-orig-08-1-7-8-6">
      <stop
         id="stop6-paper-sheet-orig-1-0-9-7-2"
         style="stop-color:#ffffff;stop-opacity:1"
         offset="0" />
      <stop
         id="stop7-paper-sheet-orig-2-0-1-1-6"
         style="stop-color:#d3d7cf;stop-opacity:1"
         offset="1" />
    </linearGradient>
    <linearGradient
       id="linearGradient10-paper-sheet-orig-3-03-7-0-9">
      <stop
         id="stop15-paper-sheet-orig-7-42-5-2-4"
         style="stop-color:#555753;stop-opacity:1"
         offset="0" />
      <stop
         id="stop16-paper-sheet-orig-8-4-8-4-8"
         style="stop-color:#babdb6;stop-opacity:1"
         offset="1" />
    </linearGradient>
    <filter
       x="-0.12016"
       y="-0.12016"
       width="1.2403"
       height="1.2403"
       color-interpolation-filters="sRGB"
       id="filter4454-5-9">
      <feGaussianBlur
         stdDeviation="0.25032381"
         id="feGaussianBlur4456-5-1" />
    </filter>
    <linearGradient
       id="linearGradient4340-2-7">
      <stop
         id="stop4342-1-8"
         style="stop-color:#ffffff;stop-opacity:1"
         offset="0" />
      <stop
         id="stop4344-8-0"
         style="stop-color:#888a85;stop-opacity:1"
         offset="1" />
    </linearGradient>
    <linearGradient
       id="linearGradient4378-6-6">
      <stop
         id="stop4380-5-7"
         style="stop-color:#d3d7cf;stop-opacity:1"
         offset="0" />
      <stop
         id="stop4382-3-9"
         style="stop-color:#555753;stop-opacity:1"
         offset="1" />
    </linearGradient>
    <linearGradient
       id="linearGradient4370-0-0">
      <stop
         id="stop4372-2-6"
         style="stop-color:#ffffff;stop-opacity:1"
         offset="0" />
      <stop
         id="stop4374-6-1"
         style="stop-color:#ffffff;stop-opacity:0"
         offset="1" />
    </linearGradient>
    <linearGradient
       x1="24.498"
       y1="3.998"
       x2="24.498"
       y2="8"
       id="linearGradient3244"
       xlink:href="#linearGradient5379-95"
       gradientUnits="userSpaceOnUse"
       gradientTransform="translate(-0.18,0.57)" />
    <linearGradient
       x1="24.635"
       y1="3.5194"
       x2="24.635"
       y2="11.541"
       id="linearGradient3248"
       xlink:href="#linearGradient3881-64"
       gradientUnits="userSpaceOnUse"
       gradientTransform="translate(-0.18,0.57)" />
    <linearGradient
       x1="32.912"
       y1="16.214"
       x2="31.418"
       y2="4.0311"
       id="linearGradient3250"
       xlink:href="#linearGradient3869-4"
       gradientUnits="userSpaceOnUse"
       gradientTransform="translate(-0.18,-1.43)" />
    <radialGradient
       cx="-117.93"
       cy="5.1983"
       r="18"
       fx="-117.93"
       fy="5.1983"
       id="radialGradient3253"
       xlink:href="#linearGradient3-paper-sheet-orig-08-1-7-8-6"
       gradientUnits="userSpaceOnUse"
       gradientTransform="matrix(3.1946,0,0,1.5471,365.32,23.796)" />
    <linearGradient
       x1="-367.95"
       y1="16.064"
       x2="-393.39"
       y2="-46.7"
       id="linearGradient3255"
       xlink:href="#linearGradient10-paper-sheet-orig-3-03-7-0-9"
       gradientUnits="userSpaceOnUse"
       gradientTransform="translate(356,50)" />
    <linearGradient
       x1="325.59"
       y1="82.026"
       x2="333.84"
       y2="90.282"
       id="linearGradient3264"
       xlink:href="#linearGradient4370-0-0"
       gradientUnits="userSpaceOnUse"
       gradientTransform="translate(-296.18,-51.43)" />
    <radialGradient
       cx="328.55"
       cy="85.548"
       r="3"
       fx="328.55"
       fy="85.548"
       id="radialGradient3267"
       xlink:href="#linearGradient4340-2-7"
       gradientUnits="userSpaceOnUse"
       gradientTransform="matrix(0.63949,0,0,0.63949,-177.78,-20.638)" />
    <radialGradient
       cx="327.53"
       cy="84.5"
       r="3"
       fx="327.53"
       fy="84.5"
       id="radialGradient3269"
       xlink:href="#linearGradient4378-6-6"
       gradientUnits="userSpaceOnUse"
       gradientTransform="matrix(1.9562,0,0,1.9562,-609.37,-132.23)" />
    <linearGradient
       x1="14.788"
       y1="-9.0177"
       x2="14.788"
       y2="-69.469"
       id="linearGradient3291"
       xlink:href="#linearGradient5788-6"
       gradientUnits="userSpaceOnUse"
       gradientTransform="translate(-0.18,-0.57)" />
    <linearGradient
       x1="25.5"
       y1="-13.625"
       x2="26"
       y2="-39.125"
       id="linearGradient3294"
       xlink:href="#linearGradient5772-1"
       gradientUnits="userSpaceOnUse"
       gradientTransform="translate(-0.18,-0.57)" />
    <linearGradient
       x1="18.397"
       y1="-37.161"
       x2="10.832"
       y2="4.0281"
       id="linearGradient3296"
       xlink:href="#linearGradient3968-1"
       gradientUnits="userSpaceOnUse"
       gradientTransform="translate(-0.18,1.43)" />
  </defs>
  <rect
     width="35.125"
     height="6.5"
     rx="3.25"
     ry="5.2812"
     x="6.875"
     y="35.875"
     transform="matrix(0.90658,0,0,0.3079,1.85,28.836)"
     id="rect3988"
     style="opacity:0.62651;color:#000000;fill:#000000;fill-opacity:1;fill-rule:nonzero;stroke:none;stroke-width:1;marker:none;visibility:visible;display:block;overflow:visible;filter:url(#filter5830-5);enable-background:accumulate" />
  <rect
     width="35.125"
     height="6.5"
     rx="3.25"
     ry="5.2812"
     x="6.875"
     y="35.875"
     transform="matrix(1.1566,0,0,0.71174,-4.26,12.723)"
     id="rect3990"
     style="opacity:0.19277;color:#000000;fill:#000000;fill-opacity:1;fill-rule:nonzero;stroke:none;stroke-width:1;marker:none;visibility:visible;display:block;overflow:visible;filter:url(#filter5830-5);enable-background:accumulate" />
  <rect
     width="30"
     height="32"
     rx="2.5"
     ry="2.5"
     x="9.32"
     y="-41.07"
     transform="scale(1,-1)"
     id="rect3992"
     style="color:#000000;fill:url(#linearGradient3294);fill-opacity:1;fill-rule:nonzero;stroke:url(#linearGradient3296);stroke-width:1;stroke-linecap:butt;stroke-linejoin:miter;stroke-miterlimit:4;stroke-opacity:1;stroke-dasharray:none;stroke-dashoffset:0;marker:none;visibility:visible;display:block;overflow:visible;enable-background:accumulate" />
  <rect
     width="28"
     height="30"
     rx="1.5"
     ry="1.5"
     x="10.32"
     y="-40.07"
     transform="scale(1,-1)"
     id="rect3994"
     style="opacity:0.3;color:#000000;fill:none;stroke:url(#linearGradient3291);stroke-width:1;stroke-linecap:butt;stroke-linejoin:miter;stroke-miterlimit:4;stroke-opacity:1;stroke-dasharray:none;stroke-dashoffset:0;marker:none;visibility:visible;display:block;overflow:visible;enable-background:accumulate" />
  <path
     d="m 13.76,12.07 21.13,0 c 0.79,0 1.43,0.638 1.43,1.431 l 0,20.569 c 0,0 -5,5 -5,5 l -17.56,0 c -0.8,0 -1.43,-0.639 -1.43,-1.432 l 0,-24.143 c 0,-0.793 0.63,-1.431 1.43,-1.431 z"
     id="rect2373-3"
     style="opacity:0.2;color:#000000;fill:#000000;fill-opacity:1;fill-rule:evenodd;stroke:#000000;stroke-width:1;stroke-linecap:butt;stroke-linejoin:miter;stroke-miterlimit:4;stroke-opacity:1;stroke-dashoffset:0;marker:none;visibility:visible;display:inline;overflow:visible;filter:url(#filter4507-1-0);enable-background:new" />
  <g
     transform="matrix(0.6232,0,0,0.67717,35.13,8.335)"
     id="g5646">
    <g
       transform="matrix(1.1,0,0,1,-43.742,5.919)"
       id="g66">
      <g
         transform="matrix(1,0,0,0.55556,-4.55e-7,13.889)"
         id="g2043">
        <g
           id="g2036"
           style="display:inline">
          <g
             transform="matrix(1.0526,0,0,1.2857,-1.2632,-13.429)"
             id="g3712"
             style="opacity:0.4" />
        </g>
      </g>
      <g
         transform="translate(50.689,6.215)"
         id="g2285"
         style="display:inline" />
      <g
         transform="matrix(0.1867,0,0,0.1867,29.581,63.838)"
         id="g891" />
    </g>
    <g
       id="g5657"
       style="display:inline" />
    <g
       id="layer5-1"
       style="display:inline">
      <path
         d="m -34.295,4.0387 33.90648,0 c 1.27248,0 2.29692,0.9427 2.29692,2.1138 l 4e-4,30.3745 c 0,0 -8.023,7.384 -8.023,7.384 l -28.1808,0 c -1.272,0 -2.297,-0.943 -2.297,-2.114 l 0,-35.6525 c 0,-1.171 1.025,-2.1138 2.297,-2.1138 z"
         id="rect2373"
         style="color:#000000;fill:url(#radialGradient3253);fill-opacity:1;fill-rule:nonzero;stroke:url(#linearGradient3255);stroke-width:1.53935;stroke-linecap:butt;stroke-linejoin:miter;stroke-miterlimit:4;stroke-opacity:1;stroke-dasharray:none;stroke-dashoffset:0;marker:none;visibility:visible;display:inline;overflow:visible;enable-background:accumulate" />
    </g>
  </g>
  <path
     d="m 24.86,32.949 c -1.14,0 -2.02,-0.895 -2.02,-2.057 0,-1.252 0.79,-2.057 2.02,-2.057 1.23,0 1.94,0.805 2.02,2.057 0,1.162 -0.79,2.057 -2.02,2.057 l 0,0 z m -0.65,-6.648 -1.11,-8.914 3.52,0 -1.12,10.383 -1.29,-1.469 z"
     id="path11163"
     style="fill:#cc0000;fill-opacity:1;fill-rule:nonzero;stroke:none;display:inline;enable-background:new" />
  <path
     d="m 331.5,84.5 -5,0 0,5 5,-5 z"
     transform="matrix(1,0,0,0.90323,-296.18,-43.311)"
     id="path4330-5"
     style="opacity:0.2;fill:#000000;fill-opacity:1;stroke:none;display:inline;filter:url(#filter4454-5-9);enable-background:new" />
  <path
     d="m 36.32,33.07 -5,0 0,5 5,-5 z"
     id="path4330"
     style="fill:url(#radialGradient3267);fill-opacity:1;stroke:url(#radialGradient3269);stroke-width:1px;stroke-linecap:butt;stroke-linejoin:round;stroke-opacity:1" />
  <path
     d="m 13.89,12.07 20.86,0 c 0.31,0 0.57,0.255 0.57,0.573 l 0,19.927 c 0,0 -4.5,4.5 -4.5,4.5 l -16.93,0 c -0.31,0 -0.57,-0.255 -0.57,-0.573 l 0,-23.854 c 0,-0.318 0.26,-0.573 0.57,-0.573 z"
     id="rect2423"
     style="color:#000000;fill:none;stroke:url(#linearGradient3264);stroke-width:1;stroke-linecap:butt;stroke-linejoin:miter;stroke-miterlimit:4;stroke-opacity:1;stroke-dashoffset:0;marker:none;visibility:visible;display:inline;overflow:visible;enable-background:new" />
  <path
     d="m 16.722,14.507 15.632,0 c 0.973,0.04 1.027,-1.889 1.027,-1.889 l -2.884,-2.311 0,-0.7543 c 0,0 -12.015,-0.021 -12.015,-0.021 l 0,0.8893 -2.601,2.243 c 0,0 -0.05,1.798 0.832,1.842 z"
     transform="matrix(1.0502,0,0,1.0502,-1.42,-1.096)"
     id="path3866"
     style="opacity:0.44118;color:#000000;fill:#000000;fill-opacity:1;fill-rule:nonzero;stroke:none;stroke-width:1;marker:none;visibility:visible;display:block;overflow:visible;filter:url(#filter5766-5);enable-background:accumulate" />
  <path
     d="m 16.54,13.077 15.63,0 c 0.98,0.04 1.03,-1.889 1.03,-1.889 l -2.88,-2.311 0,-3.754 c 0,-0.823 -0.7,-1.934 -1.7,-1.934 L 20.1,3.099 c -1.22,0 -1.8,1.188 -1.8,2.001 l 0,3.89 -2.6,2.243 c 0,0 -0.1,1.798 0.83,1.842 z"
     id="path3868"
     style="color:#000000;fill:url(#linearGradient3248);fill-opacity:1;fill-rule:nonzero;stroke:url(#linearGradient3250);stroke-width:1;stroke-linecap:butt;stroke-linejoin:miter;stroke-miterlimit:4;stroke-opacity:1;stroke-dasharray:none;stroke-dashoffset:0;marker:none;visibility:visible;display:block;overflow:visible;enable-background:accumulate" />
  <rect
     width="15"
     height="1.0416"
     rx="0.52082"
     ry="0.52082"
     x="16.82"
     y="10.57"
     id="rect3870"
     style="opacity:0.5;color:#000000;fill:#ffffff;fill-opacity:1;fill-rule:nonzero;stroke:none;stroke-width:1;marker:none;visibility:visible;display:block;overflow:visible;enable-background:accumulate" />
  <path
     d="m 19.82,8.57 0,-3 c 0,-0.632 0.21,-1.034 1,-1 l 7,0 c 0.46,0.07 0.94,0.116 1,1 l 0,3 -1,-3 -7,0 -1,3 z"
     id="path3872"
     style="color:#000000;fill:url(#linearGradient3244);fill-opacity:1;fill-rule:nonzero;stroke:none;stroke-width:1;marker:none;visibility:visible;display:inline;overflow:visible;enable-background:accumulate" />
  <path
     d="m 316.28,55.406 c -0.32,0 -0.49,0.119 -0.66,0.344 -0.16,0.225 -0.24,0.579 -0.24,0.781 l 0,3.907 a 0.87518,0.87518 0 0 1 -0.32,0.656 l -2.28,1.937 c 0,0.134 0,0.181 0,0.344 0,0.129 0.1,0.196 0.1,0.25 l 15.34,0 c 0,-0.04 0.1,-0.126 0.13,-0.281 0,-0.156 0,-0.207 0.1,-0.344 l -2.5,-2 a 0.87518,0.87518 0 0 1 -0.32,-0.688 l 0,-3.75 c 0,-0.17 -0.1,-0.523 -0.28,-0.75 C 325.18,55.586 325,55.5 324.82,55.5 l -8.53,-0.09 z"
     id="path3874"
     style="opacity:0.2;color:#000000;fill:none;stroke:#ffffff;stroke-width:1;stroke-linecap:butt;stroke-linejoin:miter;stroke-miterlimit:4;stroke-opacity:1;stroke-dasharray:none;stroke-dashoffset:0;marker:none;visibility:visible;display:block;overflow:visible;enable-background:accumulate" />
</svg>
